<svg width="760" height="760" viewBox="0 0 760 760" fill="none" xmlns="http://www.w3.org/2000/svg">
  <rect width="760" height="760" fill="none"/>
  <circle cx="380" cy="390" r="248" stroke="#0ADDF8" stroke-opacity=".11" stroke-width="2"/>
  <circle cx="380" cy="390" r="178" stroke="#0ADDF8" stroke-opacity=".22" stroke-width="2"/>
  <circle cx="380" cy="390" r="132" fill="#071729" stroke="#05D9F7" stroke-width="4"/>
  <circle cx="380" cy="390" r="104" fill="#0A2D68" opacity=".68"/>
  <path d="M248 390h264M380 258c42 47 63 91 63 132s-21 85-63 132c-42-47-63-91-63-132s21-85 63-132Z" stroke="#0ADDF8" stroke-opacity=".65" stroke-width="3"/>
  <path d="M286 316c48 18 136 18 188 0M286 464c48-18 136-18 188 0" stroke="#0ADDF8" stroke-opacity=".24" stroke-width="3" stroke-dasharray="8 10"/>
  <path d="M246 390c24-82 75-124 134-124 58 0 110 42 134 124-24 82-76 124-134 124-59 0-110-42-134-124Z" stroke="#0ADDF8" stroke-opacity=".22" stroke-width="2"/>
  <g filter="url(#glow)">
    <circle cx="360" cy="330" r="8" fill="#03D9F6"/>
    <circle cx="450" cy="476" r="9" fill="#08D891"/>
    <circle cx="306" cy="405" r="6" fill="#C077FF"/>
    <circle cx="506" cy="400" r="7" fill="#F8FFFF"/>
    <circle cx="340" cy="488" r="9" fill="#03D9F6"/>
    <circle cx="288" cy="356" r="6" fill="#F8FFFF"/>
  </g>
  <rect x="180" y="522" width="400" height="44" rx="22" fill="#081013" stroke="#6D747B" stroke-opacity=".44"/>
  <circle cx="298" cy="544" r="13" stroke="#03D9F6" stroke-width="3"/>
  <path d="M285 544h26M298 531c3.2 3.6 4.8 7.9 4.8 13s-1.6 9.4-4.8 13M298 531c-3.2 3.6-4.8 7.9-4.8 13s1.6 9.4 4.8 13" stroke="#03D9F6" stroke-width="3" stroke-linecap="round"/>
  <text x="326" y="551" fill="#F7FBFF" font-family="Consolas, monospace" font-size="14.4" font-weight="800" letter-spacing="2">BINGO DIGITAL EARTH</text>
  <defs>
    <filter id="glow" x="260" y="300" width="280" height="220" filterUnits="userSpaceOnUse" color-interpolation-filters="sRGB">
      <feGaussianBlur stdDeviation="10" result="blur"/>
      <feMerge><feMergeNode in="blur"/><feMergeNode in="SourceGraphic"/></feMerge>
    </filter>
  </defs>
</svg>
