<svg width="760" height="760" viewBox="0 0 760 760" fill="none" xmlns="http://www.w3.org/2000/svg">
  <style>
    .scan-flow {
      animation: scanFlow 4.8s linear infinite;
      stroke-dasharray: 18 150;
      stroke-dashoffset: 0;
    }

    .scan-flow.delay {
      animation-delay: -2.4s;
    }

    @keyframes scanFlow {
      to {
        stroke-dashoffset: -168;
      }
    }
  </style>
  <rect width="760" height="760" fill="none"/>
  <circle cx="380" cy="390" r="248" stroke="#0ADDF8" stroke-opacity=".11" stroke-width="2"/>
  <circle cx="380" cy="390" r="178" stroke="#0ADDF8" stroke-opacity=".22" stroke-width="2"/>
  <circle cx="380" cy="390" r="132" fill="#071729" stroke="#05D9F7" stroke-width="2.6"/>
  <circle cx="380" cy="390" r="104" fill="#0A2D68" opacity=".68"/>
  <path d="M248 390h264" stroke="#0ADDF8" stroke-opacity=".52" stroke-width="1.3"/>
  <ellipse cx="380" cy="390" rx="62" ry="132" stroke="#0ADDF8" stroke-opacity=".62" stroke-width="1.3"/>
  <path d="M380 258A96 132 0 0 0 380 522M380 258A96 132 0 0 1 380 522" stroke="#0ADDF8" stroke-opacity=".25" stroke-width="1.3" stroke-linecap="round" stroke-dasharray="6 9"/>
  <path class="scan-flow" d="M380 258A96 132 0 0 0 380 522" stroke="#46F2FF" stroke-opacity=".78" stroke-width="1.35" stroke-linecap="round"/>
  <path class="scan-flow delay" d="M380 258A96 132 0 0 1 380 522" stroke="#46F2FF" stroke-opacity=".78" stroke-width="1.35" stroke-linecap="round"/>
  <path d="M246 390c24-82 75-124 134-124 58 0 110 42 134 124-24 82-76 124-134 124-59 0-110-42-134-124Z" stroke="#0ADDF8" stroke-opacity=".18" stroke-width="1.3"/>
  <g filter="url(#glow)">
    <circle r="7" fill="#03D9F6" opacity=".82">
      <animateMotion dur="24s" begin="-3s" repeatCount="indefinite">
        <mpath href="#orbitWide"/>
      </animateMotion>
      <animate attributeName="r" values="6;9;6" dur="3.8s" repeatCount="indefinite"/>
      <animate attributeName="opacity" values=".55;1;.55" dur="3.8s" repeatCount="indefinite"/>
    </circle>
    <circle r="8" fill="#08D891" opacity=".82">
      <animateMotion dur="28s" begin="-14s" repeatCount="indefinite">
        <mpath href="#orbitWide"/>
      </animateMotion>
      <animate attributeName="r" values="6.5;10;6.5" dur="4.4s" begin="-1.1s" repeatCount="indefinite"/>
      <animate attributeName="opacity" values=".5;1;.5" dur="4.4s" begin="-1.1s" repeatCount="indefinite"/>
    </circle>
    <circle r="6" fill="#C077FF" opacity=".78">
      <animateMotion dur="22s" begin="-8s" repeatCount="indefinite">
        <mpath href="#orbitLow"/>
      </animateMotion>
      <animate attributeName="r" values="5;8;5" dur="3.4s" begin="-1.7s" repeatCount="indefinite"/>
      <animate attributeName="opacity" values=".48;.96;.48" dur="3.4s" begin="-1.7s" repeatCount="indefinite"/>
    </circle>
    <circle r="6.5" fill="#F8FFFF" opacity=".86">
      <animateMotion dur="26s" begin="-18s" repeatCount="indefinite">
        <mpath href="#orbitMid"/>
      </animateMotion>
      <animate attributeName="r" values="5.5;8.5;5.5" dur="3.6s" begin="-2.2s" repeatCount="indefinite"/>
      <animate attributeName="opacity" values=".58;1;.58" dur="3.6s" begin="-2.2s" repeatCount="indefinite"/>
    </circle>
    <circle r="8" fill="#03D9F6" opacity=".8">
      <animateMotion dur="30s" begin="-21s" repeatCount="indefinite">
        <mpath href="#orbitInner"/>
      </animateMotion>
      <animate attributeName="r" values="6.5;10;6.5" dur="4.8s" begin="-3s" repeatCount="indefinite"/>
      <animate attributeName="opacity" values=".5;1;.5" dur="4.8s" begin="-3s" repeatCount="indefinite"/>
    </circle>
    <circle r="5.8" fill="#F8FFFF" opacity=".82">
      <animateMotion dur="20s" begin="-4s" repeatCount="indefinite">
        <mpath href="#orbitInner"/>
      </animateMotion>
      <animate attributeName="r" values="4.8;7.8;4.8" dur="3.2s" begin="-1.2s" repeatCount="indefinite"/>
      <animate attributeName="opacity" values=".56;1;.56" dur="3.2s" begin="-1.2s" repeatCount="indefinite"/>
    </circle>
  </g>
  <rect x="180" y="522" width="400" height="44" rx="22" fill="#081013" stroke="#6D747B" stroke-opacity=".44"/>
  <circle cx="298" cy="544" r="13" stroke="#03D9F6" stroke-width="3"/>
  <path d="M285 544h26M298 531c3.2 3.6 4.8 7.9 4.8 13s-1.6 9.4-4.8 13M298 531c-3.2 3.6-4.8 7.9-4.8 13s1.6 9.4 4.8 13" stroke="#03D9F6" stroke-width="3" stroke-linecap="round"/>
  <text x="326" y="551" fill="#F7FBFF" font-family="Consolas, monospace" font-size="14.4" font-weight="800" letter-spacing="2">BINGO DIGITAL EARTH</text>
  <defs>
    <path id="orbitWide" d="M248 390c24-82 75-124 134-124 58 0 110 42 134 124-24 82-76 124-134 124-59 0-110-42-134-124Z"/>
    <path id="orbitMid" d="M264 390c22-64 66-98 116-98 49 0 94 34 116 98-22 64-67 98-116 98-50 0-94-34-116-98Z"/>
    <path id="orbitLow" d="M292 438c44 30 132 30 176 0 22-15 22-36 0-50-44-30-132-30-176 0-22 14-22 35 0 50Z"/>
    <path id="orbitInner" d="M380 258A96 132 0 0 0 380 522A96 132 0 0 1 380 258Z"/>
    <filter id="glow" x="220" y="240" width="320" height="310" filterUnits="userSpaceOnUse" color-interpolation-filters="sRGB">
      <feGaussianBlur stdDeviation="10" result="blur"/>
      <feMerge><feMergeNode in="blur"/><feMergeNode in="SourceGraphic"/></feMerge>
    </filter>
  </defs>
</svg>
