<svg width="860" height="540" viewBox="0 0 860 540" fill="none" xmlns="http://www.w3.org/2000/svg">
  <rect x="1" y="1" width="858" height="538" rx="42" fill="#060A0D" stroke="#8BA1AE" stroke-opacity=".12" stroke-width="2"/>
  <path d="M80 108h700M80 190h700M80 272h700M80 354h700M80 436h700M200 70v400M360 70v400M520 70v400M680 70v400" stroke="#0ADDF8" stroke-opacity=".05"/>
  <path d="M135 170c72-28 153 4 207 70 42 52 8 98-56 110-42 8-78 23-82 56-4 38-53 55-80 25-37-42-2-120 15-168 10-31-35-61-4-93Z" fill="#0B1418" stroke="#334047" stroke-opacity=".45"/>
  <path d="M455 178c72-32 120 42 176 72 70 38 104-40 139 20 20 34-34 92-88 108-59 18-88-29-146-22-64 8-124-14-136-65-11-47 9-92 55-113Z" fill="#0B1418" stroke="#334047" stroke-opacity=".45"/>
  <path d="M590 228c45 30 78 42 120 30" stroke="#0ADDF8" stroke-opacity=".13" stroke-width="2"/>
  <circle cx="58" cy="62" r="24" stroke="#03D9F6" stroke-opacity=".18" stroke-width="6"/>
  <path d="M49 52 67 62 49 72l5-10-5-10Z" stroke="#03D9F6" stroke-opacity=".28" stroke-width="3" stroke-linejoin="round"/>
</svg>
