<?xml version="1.0" standalone="no"?><!DOCTYPE svg PUBLIC "-//W3C//DTD SVG 1.1//EN" "http://www.w3.org/Graphics/SVG/1.1/DTD/svg11.dtd"><svg t="1782875873038" class="icon" viewBox="0 0 1024 1024" version="1.1" xmlns="http://www.w3.org/2000/svg" p-id="3625" xmlns:xlink="http://www.w3.org/1999/xlink" width="200" height="200"><path d="M512 34.909091c231.330909 0 418.909091 188.043636 418.909091 419.933091a418.909091 418.909091 0 0 1-99.607273 271.825454l-11.496727 13.358546c-46.685091 52.968727-127.906909 135.121455-243.712 246.411636-34.676364 33.373091-88.436364 34.536727-124.416 3.444364l-3.770182-3.444364-48.872727-47.197091c-99.374545-96.674909-168.168727-167.563636-206.336-212.526545A418.909091 418.909091 0 0 1 93.090909 454.888727C93.090909 222.859636 280.669091 34.909091 512 34.909091z m0 69.818182c-192.930909 0-349.090909 156.858182-349.090909 350.021818 0 84.061091 29.602909 163.467636 82.804364 226.257454l7.168 8.378182c25.972364 29.882182 64.884364 70.842182 116.549818 122.600728l15.825454 15.872c27.136 26.996364 57.390545 56.645818 90.763637 88.994909l19.968 19.223272a23.04 23.04 0 0 0 32.023272 0l37.934546-36.724363c103.656727-100.724364 174.685091-173.800727 212.386909-218.344728A348.811636 348.811636 0 0 0 861.090909 454.656c0-193.163636-156.16-349.975273-349.090909-349.975273zM512 279.272727a186.181818 186.181818 0 1 1 0 372.363637 186.181818 186.181818 0 0 1 0-372.363637z m0 69.818182a116.363636 116.363636 0 1 0 0 232.727273 116.363636 116.363636 0 0 0 0-232.727273z" p-id="3626" fill="#03D9F6"></path></svg>