<?xml version="1.0" standalone="no"?><!DOCTYPE svg PUBLIC "-//W3C//DTD SVG 1.1//EN" "http://www.w3.org/Graphics/SVG/1.1/DTD/svg11.dtd"><svg t="1782872631196" class="icon" viewBox="0 0 1024 1024" version="1.1" xmlns="http://www.w3.org/2000/svg" p-id="2666" xmlns:xlink="http://www.w3.org/1999/xlink" width="200" height="200"><path d="M606.814281 18.332481c62.838506 0 113.779233 50.939417 113.779233 113.777923V283.812992c0 62.837197-50.940726 113.777923-113.779233 113.777924H455.111693c-62.838506 0-113.779233-50.940726-113.779233-113.779233V132.111714C341.33377 69.270588 392.274496 18.332481 455.113003 18.332481h151.702588z m0 75.851949H455.111693c-20.736655 0-37.586824 16.641964-37.922046 37.298741l-0.003928 0.627233V283.812992c0 20.736655 16.641964 37.585514 37.298741 37.920737l0.627233 0.005238h151.702588c20.736655 0 37.586824-16.643274 37.922046-37.298742l0.003929-0.628542V132.111714c0-20.736655-16.641964-37.585514-37.298742-37.922046l-0.627233-0.003929zM265.480512 625.146762c62.838506 0 113.779233 50.940726 113.779232 113.779233v151.702588c0 62.838506-50.940726 113.777923-113.779232 113.777923H113.779233C50.938107 1004.406506 0 953.46709 0 890.628583V738.924685c0-62.837197 50.939417-113.777923 113.777923-113.777923H265.480512z m0 75.851949H113.779233c-20.736655 0-37.585514 16.643274-37.922046 37.298742l-0.003929 0.628542v151.702588c0 20.736655 16.641964 37.585514 37.298742 37.922046l0.627233 0.003929H265.480512c20.736655 0 37.585514-16.641964 37.920736-37.298742l0.005238-0.627233V738.924685c0-20.736655-16.643274-37.585514-37.298742-37.920736l-0.628542-0.005238zM910.222077 625.146762c62.838506 0 113.777923 50.940726 113.777923 113.779233v151.702588c0 62.838506-50.939417 113.777923-113.777923 113.777923H758.519488c-62.837197 0-113.777923-50.939417-113.777923-113.777923V738.924685c0-62.837197 50.940726-113.777923 113.779233-113.777923H910.220767z m0 75.851949H758.519488c-20.736655 0-37.585514 16.643274-37.920736 37.298742l-0.005238 0.628542v151.702588c0 20.736655 16.643274 37.585514 37.298742 37.922046l0.628542 0.003929H910.220767c20.736655 0 37.585514-16.641964 37.922046-37.298742l0.003929-0.627233V738.924685c0-20.736655-16.641964-37.585514-37.298742-37.920736l-0.627233-0.005238z" fill="#99A1AF" p-id="2667"></path><path d="M792.230302 473.444174c44.219253 0 80.065801 33.959611 80.0658 75.850639v151.703898h-75.851949V549.294813H227.555847v151.703898h-75.851949V549.294813c0-41.891028 35.846547-75.850639 80.0658-75.850639h560.460604z" fill="#99A1AF" p-id="2668"></path><path d="M568.888307 321.740276v189.629872H493.038977V321.740276z" fill="#99A1AF" p-id="2669"></path></svg>