<?xml version="1.0" standalone="no"?><!DOCTYPE svg PUBLIC "-//W3C//DTD SVG 1.1//EN" "http://www.w3.org/Graphics/SVG/1.1/DTD/svg11.dtd"><svg t="1782872620304" class="icon" viewBox="0 0 1024 1024" version="1.1" xmlns="http://www.w3.org/2000/svg" p-id="2249" xmlns:xlink="http://www.w3.org/1999/xlink" width="200" height="200"><path d="M786.310549 421.422642c54.904486 0 84.900327 65.140916 55.028565 111.266888l-16.130132 24.69151a851639.338643 851639.338643 0 0 1-171.599784 262.704008l-0.310195 0.434273-112.910921 172.716486c-39.67392 61.015325-127.024786 24.939665-122.123708-46.001895l24.0401-344.31627H237.63792c-54.904486 0-84.900327-65.140916-55.028564-111.266889L483.312232 31.011419c39.984115-60.581052 127.179884-25.094762 122.278805 45.567621l-23.885003 344.440349 204.604515 0.403253z m-268.783827 28.382828l26.180445-377.507118c0.651409-9.647059-5.366371-12.097599-8.561378-7.25856L234.59801 525.461991c-4.280689 6.60715-0.217136 15.385664 3.03991 15.385664h271.203347l-2.326462 33.190847-26.366561 377.507118c-0.682429 10.019293 5.211273 12.469832 8.251183 7.785891 30.337055-46.343109 68.615098-104.845855 112.97296-172.747506l0.310195-0.434272a759439.320407 759439.320407 0 0 0 171.599784-262.704009l16.068093-24.59845c4.280689-6.60715 0.217136-15.385664-3.101949-15.385664l-271.01723-0.558351 2.295442-33.097789z" fill="#99A1AF" p-id="2250"></path></svg>