<?xml version="1.0" encoding="utf-8"?>
<!-- Generator: Adobe Illustrator 24.0.0, SVG Export Plug-In . SVG Version: 6.00 Build 0)  -->
<svg version="1.1" id="图层_1" xmlns="http://www.w3.org/2000/svg" xmlns:xlink="http://www.w3.org/1999/xlink" x="0px" y="0px"
	 viewBox="0 0 841.89 595.28" style="enable-background:new 0 0 841.89 595.28;" xml:space="preserve">
<style type="text/css">
	.st0{fill:#033B94;}
</style>
<path class="st0" d="M471.23,302.81l-4.75,2.54c2.79,9.79,10.44,17.54,20.18,20.46l2.44-4.75
	C480.25,318.79,473.31,311.73,471.23,302.81z M501.31,321.06l2.38,4.77c9.8-2.91,17.5-10.72,20.27-20.58l-4.81-2.29
	C517.02,311.8,510.11,318.8,501.31,321.06z M519.23,291.77l4.87-2.16c-2.63-10.02-10.35-17.99-20.21-20.99l-2.58,4.71
	C510.22,275.6,517.19,282.76,519.23,291.77z M488.75,273.42l-2.57-4.7c-9.74,3.09-17.33,11.05-19.9,21l4.79,2.53
	C472.93,283.14,479.85,275.84,488.75,273.42z"/>
<path class="st0" d="M459.78,309.05l-4.66,2.54c4.26,11.82,13.6,21.24,25.38,25.58l2.49-4.67
	C472.09,328.71,463.46,320,459.78,309.05z M454.89,283.44l4.68,2.55c3.51-11.15,12.13-20.06,23.09-23.98l-2.49-4.66
	C468.33,261.82,459,271.43,454.89,283.44z M535.59,310.72l-4.77-2.26c-3.6,11.34-12.47,20.35-23.73,24.14l2.36,4.72
	C521.73,332.96,531.43,323.1,535.59,310.72z M542.83,281.62l4.83-2.08c-5.08-15.06-16.48-27.24-31.02-33.38l-2.6,4.6
	C527.62,256.29,538.24,267.6,542.83,281.62z M448.45,315.22l-4.64,2.52c5.6,13.95,16.72,25.11,30.64,30.76l2.48-4.65
	C463.9,338.73,453.51,328.29,448.45,315.22z M512.83,344.09l2.35,4.71c14.79-5.75,26.52-17.68,32-32.6l-4.76-2.25
	C537.49,327.83,526.59,338.9,512.83,344.09z M531.05,286.69l4.84-2.08c-3.88-12.53-13.4-22.59-25.58-27.23l-2.61,4.62
	C518.92,265.99,527.68,275.19,531.05,286.69z M476.6,250.66l-2.48-4.64c-13.98,5.78-25.09,17.12-30.56,31.26l4.64,2.53
	C453.13,266.55,463.51,255.92,476.6,250.66z"/>
<path class="st0" d="M495.2,276.56c-11.4,0-20.63,9.24-20.63,20.63c0,11.4,9.24,20.63,20.63,20.63c11.4,0,20.63-9.24,20.63-20.63
	C515.84,285.8,506.6,276.56,495.2,276.56z M499.75,311.11c-2.26,1.96-5.3,1.79-5.3,1.79l0,0l0,0c-8.33-0.39-14.97-7.27-14.97-15.71
	c0-6.78,4.29-12.56,10.31-14.77c-0.01,0-4.82,3.49-2.34,10.03c0,0,1.72,4.89,9.16,6.44l0,0c3.23,0.6,5.68,3.43,5.68,6.83
	C502.29,307.9,501.3,309.83,499.75,311.11z"/>
</svg>
