<?xml version="1.0" encoding="utf-8"?>
<!-- Generator: Adobe Illustrator 24.0.0, SVG Export Plug-In . SVG Version: 6.00 Build 0)  -->
<svg version="1.1" id="图层_1" xmlns="http://www.w3.org/2000/svg" xmlns:xlink="http://www.w3.org/1999/xlink" x="0px" y="0px"
	 viewBox="380 280 390 210" style="enable-background:new 380 280 390 210;" xml:space="preserve">
<defs>
  <linearGradient id="bingo-gradient" x1="0%" y1="0%" x2="100%" y2="100%">
    <stop offset="0%" stop-color="#301F77" />
    <stop offset="100%" stop-color="#1D1F56" />
  </linearGradient>
</defs>
<style type="text/css">
	.st0{fill:url(#bingo-gradient);}
</style>
<path class="st0" d="M509.52,397.11h23.67c6.44,0,11.72-5.27,11.72-11.72c0-6.44-5.27-11.72-11.72-11.72h-23.67
	c-6.44,0-11.72,5.27-11.72,11.72C497.8,391.84,503.07,397.11,509.52,397.11z M462.65,373.68h-23.67c-6.44,0-11.72,5.27-11.72,11.72
	c0,6.44,5.27,11.72,11.72,11.72h23.67c6.44,0,11.72-5.27,11.72-11.72C474.37,378.95,469.09,373.68,462.65,373.68z M486.08,442.46
	c6.44,0,11.72-5.27,11.72-11.72v-20.92c0-6.44-5.27-11.72-11.72-11.72c-6.44,0-11.72,5.27-11.72,11.72v20.92
	C474.37,437.19,479.64,442.46,486.08,442.46z M497.8,340.05c0-6.44-5.27-11.72-11.72-11.72c-6.44,0-11.72,5.27-11.72,11.72v20.92
	c0,6.44,5.27,11.72,11.72,11.72c6.44,0,11.72-5.27,11.72-11.72V340.05z M719.93,379.04l-62.13-25.2
	c-5.58-2.26-11.67,1.84-11.67,7.86v50.4c0,6.02,6.09,10.12,11.67,7.86l62.13-25.2C726.99,391.9,726.99,381.9,719.93,379.04z
	 M586.08,384.88L586.08,384.88c1.08-42.95,36.32-77.57,79.53-77.57c19.21,0,36.83,6.86,50.59,18.23l0.01-0.02
	c2.13,1.95,4.96,3.15,8.08,3.15c6.62,0,11.98-5.37,11.98-11.98c0-4.13-2.09-7.78-5.28-9.93l0.02-0.03
	c-17.85-14.6-40.61-23.39-65.41-23.39c-56.91,0-103.23,46.15-103.55,102.99l0.09,0c0.01,0.19,0.01,0.38,0.01,0.58
	c0,43.89-35.71,79.59-79.59,79.59c-43.89,0-79.6-35.71-79.6-79.59c0-43.89,35.71-79.6,79.6-79.6c19.21,0,36.83,6.86,50.59,18.23
	l0.01-0.02c2.13,1.95,4.96,3.15,8.08,3.15c6.62,0,11.99-5.37,11.99-11.98c0-4.13-2.09-7.78-5.28-9.93l0.02-0.03
	c-17.85-14.6-40.61-23.39-65.41-23.39c-57.1,0-103.56,46.46-103.56,103.56c0,57.1,46.46,103.56,103.56,103.56
	S586.13,444,586.13,386.9C586.13,386.22,586.1,385.55,586.08,384.88z M769.1,389.04c0-0.06,0.01-0.11,0.01-0.17
	c0-6.62-5.37-11.99-11.98-11.99s-11.98,5.37-11.98,11.99c0,0.08,0.01,0.16,0.01,0.24c-1.17,42.87-36.39,77.39-79.54,77.39
	c-34.09,0-63.22-21.55-74.54-51.74c-1.12,3.49-6.53,19.7-12.64,27.94c18.43,28.7,50.62,47.76,87.18,47.76
	c56.39,0,102.36-45.3,103.51-101.42H769.1z"/>
</svg>
