<?xml version="1.0" standalone="no"?><!DOCTYPE svg PUBLIC "-//W3C//DTD SVG 1.1//EN" "http://www.w3.org/Graphics/SVG/1.1/DTD/svg11.dtd"><svg t="1783474427362" class="icon" viewBox="0 0 1024 1024" version="1.1" xmlns="http://www.w3.org/2000/svg" p-id="1728" xmlns:xlink="http://www.w3.org/1999/xlink" width="200" height="200"><path d="M293.802667 878.72A426.453333 426.453333 0 0 1 85.333333 512C85.333333 276.352 276.352 85.333333 512 85.333333s426.666667 191.018667 426.666667 426.666667-191.018667 426.666667-426.666667 426.666667c-16.170667 0-32.128-0.896-47.829333-2.645334a284.458667 284.458667 0 0 1-1.066667 0.128l-0.042667-0.256a423.936 423.936 0 0 1-106.794666-26.538666l1.749333 1.536a400.853333 400.853333 0 0 1-64.213333-32.170667z m185.386666-26.922667a199.509333 199.509333 0 0 0 146.688-191.872c0-9.813333-1.578667-23.466667-4.693333-40.874666a11.946667 11.946667 0 0 1 8.704-13.653334l54.186667-14.421333a12.117333 12.117333 0 0 1 14.933333 9.386667c4.736 25.557333 7.125333 45.397333 7.125333 59.562666 0 60.544-19.584 116.906667-52.992 162.986667a342.698667 342.698667 0 0 0 166.272-162.389333c-19.2-135.381333-136.362667-239.530667-278.058666-239.530667-27.136 0-53.674667 3.84-79.018667 11.178667a218.325333 218.325333 0 0 1 79.018667 168.021333c0 108.672-79.701333 198.826667-184.277334 216.064 37.290667 18.986667 78.506667 31.36 122.112 35.541333z m-244.394666-140.629333l11.306666 7.082667c22.186667 13.866667 47.786667 21.333333 74.666667 21.333333 77.525333 0 140.373333-62.421333 140.373333-139.392a139.562667 139.562667 0 0 0-99.84-133.504l-85.333333-25.472 75.818667-46.506667A361.429333 361.429333 0 0 1 541.354667 341.333333a361.386667 361.386667 0 0 1 311.893333 177.749334L853.333333 512a341.333333 341.333333 0 1 0-618.538666 199.168z" fill="#9E9DA7" p-id="1729"></path></svg>