<?xml version="1.0" standalone="no"?><!DOCTYPE svg PUBLIC "-//W3C//DTD SVG 1.1//EN" "http://www.w3.org/Graphics/SVG/1.1/DTD/svg11.dtd"><svg t="1783474435224" class="icon" viewBox="0 0 1024 1024" version="1.1" xmlns="http://www.w3.org/2000/svg" p-id="1938" xmlns:xlink="http://www.w3.org/1999/xlink" width="200" height="200"><path d="M83.712 690.112H323.2v70.4H209.536A390.784 390.784 0 0 0 512 903.488a390.72 390.72 0 0 0 234.88-78.08l2.56-1.92 1.92 2.56 38.4 51.328 1.92 2.56-2.56 1.92A461.632 461.632 0 0 1 512 973.888m-428.288-283.776l28.16 52.864A461.696 461.696 0 0 0 512 973.888m-428.288-283.776v4.096l0.448 0.768 27.776 48-28.224-52.864zM512 973.888v-3.2 3.2z m272.64-92.672l2.496-1.856-2.56 1.856z m-581.76-123.904l2.56 3.2 1.536-3.2H202.88zM903.424 512a390.528 390.528 0 0 1-24.832 137.664l-52.8-91.264-1.6-2.752-2.752 1.6-55.424 32-2.752 1.6 1.6 2.752 113.92 197.248 2.752 4.8 2.752-4.8 27.712-47.872a461.952 461.952 0 0 0-215.296-654.4l-2.944-1.28-1.28 2.944-25.6 58.624-1.28 2.944 2.944 1.28A391.552 391.552 0 0 1 903.424 512zM447.936 125.824L395.328 216.96l-1.6 2.752 2.752 1.6 55.424 32 2.752 1.6 1.6-2.752L570.24 54.912l2.816-4.8H512A461.888 461.888 0 0 0 52.48 558.208l0.256 3.2 3.2-0.32 63.68-6.4 3.2-0.32-0.32-3.2a391.552 391.552 0 0 1 325.44-425.344z" p-id="1939" fill="#9E9DA7"></path><path d="M512 640a128 128 0 1 0 0-256 128 128 0 0 0 0 256z" p-id="1940" fill="#9E9DA7"></path></svg>