<?xml version="1.0" standalone="no"?><!DOCTYPE svg PUBLIC "-//W3C//DTD SVG 1.1//EN" "http://www.w3.org/Graphics/SVG/1.1/DTD/svg11.dtd"><svg t="1783474409208" class="icon" viewBox="0 0 1024 1024" version="1.1" xmlns="http://www.w3.org/2000/svg" p-id="1306" xmlns:xlink="http://www.w3.org/1999/xlink" width="200" height="200"><path d="M511.333 66.648c-246.637 0-446.575 199.938-446.575 446.575s199.939 446.575 446.575 446.575S957.909 759.86 957.909 513.223 757.97 66.648 511.333 66.648z m276.179 722.754c-35.888 35.888-77.664 64.057-124.166 83.727-48.116 20.351-99.26 30.67-152.012 30.67s-103.896-10.319-152.012-30.67c-46.503-19.669-88.278-47.839-124.166-83.727s-64.057-77.664-83.727-124.166c-20.351-48.116-30.67-99.26-30.67-152.012s10.319-103.896 30.67-152.012c19.669-46.503 47.839-88.278 83.727-124.166s77.663-64.057 124.166-83.727c48.116-20.351 99.26-30.67 152.012-30.67s103.896 10.319 152.012 30.67c46.503 19.669 88.278 47.839 124.166 83.727s64.057 77.664 83.727 124.166c20.351 48.116 30.67 99.26 30.67 152.012s-10.319 103.896-30.67 152.012c-19.67 46.502-47.839 88.278-83.727 124.166z" fill="#9E9DA7" p-id="1307"></path><path d="M754.344 365.492l-227.99 231.584-108.139-163.001a28 28 0 0 0-44.149-3.247L227.552 593.706c-10.342 11.497-9.405 29.201 2.092 39.543 11.498 10.341 29.2 9.404 39.542-2.092L391.53 495.149 498.766 656.79a28.002 28.002 0 0 0 43.286 4.165L794.25 404.779c10.849-11.02 10.71-28.748-0.31-39.597s-28.747-10.71-39.596 0.31z" fill="#9E9DA7" p-id="1308"></path></svg>